<?xml version="1.0" encoding="utf-8"?>
<!-- Generator: Adobe Illustrator 23.0.3, SVG Export Plug-In . SVG Version: 6.00 Build 0)  -->
<svg version="1.1" id="Calque_1" xmlns="http://www.w3.org/2000/svg" xmlns:xlink="http://www.w3.org/1999/xlink" x="0px" y="0px"
	 viewBox="0 0 191.69 25.96" style="enable-background:new 0 0 191.69 25.96;" xml:space="preserve">
<style type="text/css">
	.st0{fill:#FFFFFF;}
</style>
<g>
	<path class="st0" d="M28.31,12.96c0,7.67-6.23,12.97-14.08,12.97c-8.24,0-14.05-6.02-14.05-12.97c0-7.99,6.66-12.93,14.05-12.93
		C21.75,0.03,28.31,5.26,28.31,12.96z M11.82,22.24c0,1.43,0.79,2.72,2.4,2.72c1.72,0,2.44-1.29,2.44-2.72V5.58
		c0-1.79-0.04-4.59-2.44-4.59c-2.29,0-2.4,2.79-2.4,4.59V22.24z"/>
	<path class="st0" d="M29.24,25.39v-0.97h0.9c1.54,0,2.01-1.76,2.01-3.4V3.43c-0.68-0.9-1.25-1.93-2.36-1.93h-0.54V0.56h13.62
		l9.71,13.29V3.32c0-1-1.11-1.79-2.44-1.79h-0.72V0.56h7.38v0.97h-1.07c-1.86,0-1.83,1.4-1.83,4.34v19.53h-6.02L33.39,5.47v15.55
		c0,1.65,0.36,3.4,2.08,3.4h1.15v0.97H29.24z"/>
	<path class="st0" d="M57.72,25.39v-0.97h2.72V1.53h-2.72V0.56h16.55v0.97h-2.72v22.9h2.72v0.97H57.72z"/>
	<path class="st0" d="M77.79,1.53h-2.65V0.56h18.52c7.35,0,10,2.9,10,6.02c0,3.94-3.94,5.23-7.2,5.45v0.36
		c4.55,0.5,6.84,3.22,6.84,7.52c0,1.9-0.04,3.4,0.97,3.4c0.68,0,1.25-0.86,1.61-1.36l0.97,0.54c-1.25,2.04-3.58,3.44-7.17,3.44
		c-4.62,0-7.45-2.19-7.49-6.95c-0.04-5.98-0.61-6.45-2.47-6.45h-1.25v11.9h3.01v0.97H75.03v-0.97h2.76V1.53z M88.46,11.45h1.36
		c1.68,0,2.54-0.47,2.54-4.77V4.47c0-1.43-0.86-2.94-2.29-2.94h-1.61V11.45z"/>
	<path class="st0" d="M135.79,12.96c0,7.67-6.23,12.97-14.08,12.97c-8.24,0-14.05-6.02-14.05-12.97c0-7.99,6.66-12.93,14.05-12.93
		C129.24,0.03,135.79,5.26,135.79,12.96z M119.31,22.24c0,1.43,0.79,2.72,2.4,2.72c1.72,0,2.44-1.29,2.44-2.72V5.58
		c0-1.79-0.04-4.59-2.44-4.59c-2.29,0-2.4,2.79-2.4,4.59V22.24z"/>
	<path class="st0" d="M160.95,8.84h-1.15c-0.93-3.05-3.22-7.17-6.88-7.17c-2.65,0-3.98,0.64-3.98,8.53v6.92
		c0,5.88,1.86,7.02,4.37,7.02c3.94,0,6.31-3.58,6.95-7.09h1.11c-0.64,5.8-4.87,8.89-10.53,8.89c-7.92,0-13.44-5.12-13.44-13.15
		c0-7.31,5.8-12.76,13.04-12.76c1.93,0,3.01,0.36,4.8,0.97c0.64,0.22,1.11,0.61,1.76,0.61c0.43,0,0.72-0.25,1.07-0.47l1.93-1.11
		h0.93V8.84z"/>
	<path class="st0" d="M191.51,12.96c0,7.67-6.23,12.97-14.08,12.97c-8.24,0-14.05-6.02-14.05-12.97c0-7.99,6.66-12.93,14.05-12.93
		C184.95,0.03,191.51,5.26,191.51,12.96z M175.03,22.24c0,1.43,0.79,2.72,2.4,2.72c1.72,0,2.44-1.29,2.44-2.72V5.58
		c0-1.79-0.04-4.59-2.44-4.59c-2.29,0-2.4,2.79-2.4,4.59V22.24z"/>
</g>
</svg>
